<svg aria-hidden="true" style="width:0;height:0;position:absolute;overflow:hidden" xmlns="http://www.w3.org/2000/svg"><defs><symbol id="icon-facebook" viewBox="0 0 32 32"><path fill="none" stroke="#fff" style="stroke:var(--color1,#fff)" stroke-linejoin="round" stroke-linecap="round" stroke-width="2.286" d="M24 2.667h-4a6.67 6.67 0 0 0-6.667 6.667v4h-4v5.333h4v10.667h5.333V18.667h4l1.333-5.333h-5.333v-4A1.333 1.333 0 0 1 19.999 8h4V2.667z"/></symbol><symbol id="icon-instagram" viewBox="0 0 32 32"><path fill="none" stroke="#fff" style="stroke:var(--color1,#fff)" stroke-linejoin="round" stroke-linecap="round" stroke-width="2.286" d="M22.667 2.667H9.334a6.667 6.667 0 0 0-6.667 6.667v13.333a6.667 6.667 0 0 0 6.667 6.667h13.333a6.667 6.667 0 0 0 6.667-6.667V9.334a6.667 6.667 0 0 0-6.667-6.667z"/><path fill="none" stroke="#fff" style="stroke:var(--color1,#fff)" stroke-linejoin="round" stroke-linecap="round" stroke-width="2.286" d="M21.333 15.16a5.336 5.336 0 0 1-6.123 6.049 5.33 5.33 0 0 1-3.916-7.663 5.336 5.336 0 0 1 8.535-1.374 5.328 5.328 0 0 1 1.504 2.989zM23.333 8.667h.013"/></symbol><symbol id="icon-Logo-1" viewBox="0 0 40 32"><path d="M16.463 31.448v-5.12l-.132-.839v-8.563c0-1.971-.559-3.487-1.677-4.546-1.089-1.059-2.722-1.589-4.899-1.589-1.501 0-2.928.25-4.281.75s-2.501 1.162-3.443 1.986L.619 11.188c1.177-1 2.589-1.766 4.237-2.295a16.102 16.102 0 0 1 5.208-.839c3.001 0 5.311.75 6.93 2.251 1.648 1.471 2.472 3.722 2.472 6.753v14.389h-3.001zm-7.989.221c-1.736 0-3.252-.28-4.546-.839-1.265-.589-2.236-1.383-2.913-2.383C.338 27.417 0 26.24 0 24.916c0-1.206.28-2.295.839-3.266.589-1 1.53-1.795 2.825-2.383 1.324-.618 3.09-.927 5.297-.927h7.989v2.339H9.049c-2.236 0-3.796.397-4.679 1.192-.853.794-1.28 1.78-1.28 2.957 0 1.324.515 2.383 1.545 3.178s2.472 1.192 4.326 1.192c1.766 0 3.281-.397 4.546-1.192 1.295-.824 2.236-2.001 2.825-3.531l.706 2.163c-.589 1.53-1.618 2.751-3.09 3.663-1.442.912-3.266 1.368-5.473 1.368z"/><path d="M29.44 31.669c-2.413 0-4.531-.5-6.356-1.501-1.824-1.03-3.251-2.428-4.281-4.193-1.03-1.795-1.545-3.84-1.545-6.135s.486-4.326 1.457-6.091c1-1.766 2.354-3.149 4.061-4.149 1.736-1.03 3.678-1.545 5.826-1.545 2.178 0 4.105.5 5.782 1.501 1.707.971 3.046 2.354 4.017 4.149.971 1.766 1.457 3.811 1.457 6.135 0 .147-.015.309-.044.486v.486H19.643v-2.339h18.494l-1.236.927c0-1.677-.368-3.163-1.103-4.458-.706-1.324-1.677-2.354-2.913-3.09s-2.663-1.103-4.281-1.103c-1.589 0-3.016.368-4.281 1.103s-2.251 1.766-2.957 3.09c-.706 1.324-1.059 2.84-1.059 4.546v.486c0 1.766.383 3.325 1.148 4.679a8.571 8.571 0 0 0 3.266 3.134c1.412.736 3.016 1.103 4.811 1.103 1.412 0 2.722-.25 3.928-.75a8.169 8.169 0 0 0 3.178-2.295l1.766 2.03c-1.03 1.236-2.325 2.177-3.884 2.825-1.53.647-3.222.971-5.076.971zM37.296 3.31H21.848V0h15.448v3.31z"/></symbol><symbol id="icon-Logo" viewBox="0 0 41 32"><path fill="#fff" style="fill:var(--color1,#fff)" d="M10.328 7.834c3.237 0 5.709.794 7.415 2.383 1.736 1.589 2.604 3.958 2.604 7.106v14.124H16.33v-3.09c-.706 1.089-1.721 1.927-3.046 2.516-1.295.559-2.84.839-4.634.839-2.619 0-4.723-.633-6.312-1.898-1.56-1.265-2.339-2.928-2.339-4.988s.75-3.708 2.251-4.943c1.501-1.265 3.884-1.898 7.15-1.898h6.709v-.839c0-1.824-.53-3.222-1.589-4.193s-2.619-1.457-4.679-1.457c-1.383 0-2.737.235-4.061.706-1.324.441-2.442 1.045-3.354 1.81L.66 10.834c1.206-.971 2.648-1.707 4.326-2.207 1.677-.53 3.457-.794 5.341-.794zm-.971 20.613c1.618 0 3.016-.353 4.193-1.059 1.177-.736 2.03-1.766 2.56-3.09v-3.266H9.578c-3.59 0-5.385 1.206-5.385 3.619 0 1.177.456 2.104 1.368 2.781s2.178 1.015 3.796 1.015z"/><path fill="#fff" style="fill:var(--color1,#fff)" d="M40.607 19.884c0 .324-.029.75-.088 1.28H21.54c.265 2.06 1.162 3.722 2.692 4.988 1.559 1.236 3.487 1.854 5.782 1.854 2.795 0 5.046-.942 6.753-2.825l2.339 2.737c-1.059 1.236-2.383 2.177-3.972 2.825-1.56.647-3.31.971-5.252.971-2.472 0-4.664-.5-6.577-1.501-1.913-1.03-3.399-2.457-4.458-4.281-1.03-1.824-1.545-3.884-1.545-6.179 0-2.266.5-4.311 1.501-6.135 1.03-1.824 2.428-3.237 4.193-4.237 1.795-1.03 3.811-1.545 6.047-1.545s4.222.515 5.959 1.545c1.766 1 3.134 2.413 4.105 4.237 1 1.824 1.501 3.914 1.501 6.268zM29.043 11.41c-2.03 0-3.737.618-5.12 1.854-1.354 1.236-2.148 2.854-2.383 4.855h15.007c-.235-1.972-1.045-3.575-2.428-4.811-1.354-1.265-3.046-1.898-5.076-1.898zM37.517 3.31H22.069V0h15.448v3.31z"/></symbol></defs></svg>