<svg xmlns="http://www.w3.org/2000/svg" aria-hidden="true" style="position:absolute;width:0;height:0;overflow:hidden"><defs><symbol id="icon-burger" viewBox="0 0 32 32"><path d="M4 5.333h24V8H4V5.333zm8 9.334h16v2.667H12v-2.667zM4 24h24v2.667H4V24z"/></symbol><symbol id="icon-close-x" viewBox="0 0 32 32"><path stroke-linecap="round" stroke-linejoin="round" stroke-width="2.667" d="M24 8 8 24M8 8l16 16"/></symbol><symbol id="icon-logo" viewBox="0 0 40 32"><path d="M16.463 31.448v-5.12l-.132-.839v-8.563c0-1.971-.559-3.487-1.677-4.546-1.089-1.059-2.722-1.589-4.899-1.589-1.501 0-2.928.25-4.281.75s-2.501 1.162-3.443 1.986L.619 11.188c1.177-1 2.589-1.766 4.237-2.295a16.102 16.102 0 0 1 5.208-.839c3.001 0 5.311.75 6.93 2.251 1.648 1.471 2.472 3.722 2.472 6.753v14.389h-3.001zm-7.989.221c-1.736 0-3.252-.28-4.546-.839-1.265-.589-2.236-1.383-2.913-2.383C.338 27.417 0 26.24 0 24.916c0-1.206.28-2.295.839-3.266.589-1 1.53-1.795 2.825-2.383 1.324-.618 3.09-.927 5.297-.927h7.989v2.339H9.049c-2.236 0-3.796.397-4.679 1.192-.853.794-1.28 1.78-1.28 2.957 0 1.324.515 2.383 1.545 3.178s2.472 1.192 4.326 1.192c1.766 0 3.281-.397 4.546-1.192 1.295-.824 2.236-2.001 2.825-3.531l.706 2.163c-.589 1.53-1.618 2.751-3.09 3.663-1.442.912-3.266 1.368-5.473 1.368z"/><path d="M29.44 31.669c-2.413 0-4.531-.5-6.356-1.501-1.824-1.03-3.251-2.428-4.281-4.193-1.03-1.795-1.545-3.84-1.545-6.135s.486-4.326 1.457-6.091c1-1.766 2.354-3.149 4.061-4.149 1.736-1.03 3.678-1.545 5.826-1.545 2.178 0 4.105.5 5.782 1.501 1.707.971 3.046 2.354 4.017 4.149.971 1.766 1.457 3.811 1.457 6.135 0 .147-.015.309-.044.486v.486H19.643v-2.339h18.494l-1.236.927c0-1.677-.368-3.163-1.103-4.458-.706-1.324-1.677-2.354-2.913-3.09s-2.663-1.103-4.281-1.103c-1.589 0-3.016.368-4.281 1.103s-2.251 1.766-2.957 3.09c-.706 1.324-1.059 2.84-1.059 4.546v.486c0 1.766.383 3.325 1.148 4.679a8.571 8.571 0 0 0 3.266 3.134c1.412.736 3.016 1.103 4.811 1.103 1.412 0 2.722-.25 3.928-.75a8.169 8.169 0 0 0 3.178-2.295l1.766 2.03c-1.03 1.236-2.325 2.177-3.884 2.825-1.53.647-3.222.971-5.076.971zM37.296 3.31H21.848V0h15.448v3.31z"/></symbol><symbol id="icon-tel" viewBox="0 0 32 32"><path d="m26.332 6.267-3.347-3.344a2.16 2.16 0 0 0-3.068 0l-3.605 3.598a2.167 2.167 0 0 0 0 3.074l2.816 2.819a12.745 12.745 0 0 1-2.715 4 12.75 12.75 0 0 1-3.998 2.721l-2.816-2.819a2.164 2.164 0 0 0-3.068-.001l-3.608 3.598a2.166 2.166 0 0 0-.638 1.537c0 .581.226 1.125.638 1.537l3.344 3.344a3.762 3.762 0 0 0 2.646 1.097c.204 0 .402-.016.603-.05 4.161-.685 8.291-2.9 11.626-6.232 3.331-3.337 5.544-7.466 6.235-11.63a3.743 3.743 0 0 0-1.047-3.249zM25.15 9.143c-.613 3.705-2.605 7.401-5.607 10.402s-6.694 4.993-10.4 5.606a1.477 1.477 0 0 1-1.282-.415l-3.284-3.284 3.482-3.485 3.793 3.799.679-.251a15.128 15.128 0 0 0 8.979-8.982l.251-.679-3.797-3.793 3.482-3.485L24.73 7.86c.339.339.497.817.418 1.282z"/></symbol></defs></svg>